<?xml version="1.0" encoding="UTF-8" standalone="no"?>
<!-- Created with Inkscape (http://www.inkscape.org/) -->

<svg
   version="1.1"
   id="svg32"
   width="696.99097"
   height="668.46387"
   viewBox="0 0 696.99096 668.46386"
   sodipodi:docname="dogtrace_outline4.svg"
   inkscape:export-filename="dogtrace.svg"
   inkscape:export-xdpi="96"
   inkscape:export-ydpi="96"
   inkscape:version="1.2.2 (b0a8486, 2022-12-01)"
   xmlns:inkscape="http://www.inkscape.org/namespaces/inkscape"
   xmlns:sodipodi="http://sodipodi.sourceforge.net/DTD/sodipodi-0.dtd"
   xmlns="http://www.w3.org/2000/svg"
   xmlns:svg="http://www.w3.org/2000/svg">
  <defs
     id="defs36" />
  <sodipodi:namedview
     id="namedview34"
     pagecolor="#ffffff"
     bordercolor="#000000"
     borderopacity="0.25"
     inkscape:showpageshadow="2"
     inkscape:pageopacity="0.0"
     inkscape:pagecheckerboard="0"
     inkscape:deskcolor="#d1d1d1"
     showgrid="false"
     inkscape:zoom="1.0863694"
     inkscape:cx="448.28216"
     inkscape:cy="321.25354"
     inkscape:window-width="2001"
     inkscape:window-height="1224"
     inkscape:window-x="1597"
     inkscape:window-y="86"
     inkscape:window-maximized="0"
     inkscape:current-layer="layer1" />
  <g
     inkscape:groupmode="layer"
     id="layer1"
     inkscape:label="Image 1"
     style="display:inline"
     transform="translate(-0.14585851,-0.3401252)">
    <g
       id="g200">
      <path
         style="display:inline;opacity:1;fill:#00fd88;fill-opacity:1;stroke:#000000;stroke-width:1.40687;stroke-linecap:round;stroke-linejoin:round;stroke-dasharray:none;stroke-opacity:1"
         d="m 293.33574,661.58579 c -26.60184,-17.50568 -21.10811,-49.3028 -37.35162,-73.84272 -6.29358,-29.86723 -29.19682,-48.74348 -18.25032,-83.40327 18.80473,-33.65126 19.59765,-80.74949 3.51137,-117.31563 -9.16832,-15.95035 -33.83316,-20.28202 -47.80771,-29.69047 1.32458,37.72674 -16.23274,77.56494 -16.10567,115.32387 -0.40195,36.4531 -5.33388,74.52858 6.19456,109.7444 26.5297,14.35294 39.5641,64.24027 -6.90615,59.71069 -32.9759,-7.37819 -23.91847,-55.60806 -41.42775,-79.2918 -15.63333,-33.85588 8.12,-72.05856 -6.22367,-107.66375 C 123.69594,420.3845 111.55289,388.82094 107.0701,354.35799 95.618541,325.14925 80.606566,293.31209 94.601917,262.0014 113.0119,231.99779 113.92802,194.06328 76.997785,177.55696 46.673928,153.78243 14.830515,127.18527 5.3480269,87.89688 -10.814625,54.851577 18.33842,22.03414 43.710407,4.298274 c 34.416555,-12.7509835 64.362523,9.70748 90.785073,37.18296 18.98226,17.892611 28.71083,41.86605 -6.141,32.784081 -19.33935,-22.959073 -72.318158,-58.197236 -74.451897,-3.290066 9.766353,30.237541 31.813009,57.748201 57.084297,76.667431 17.94932,19.52433 33.75096,0.21433 53.56515,-5.90632 38.25453,-19.23403 82.71485,-14.38135 124.14622,-14.7265 31.39711,7.66108 64.15306,12.78907 93.49336,26.71289 33.74056,2.83278 63.48969,19.32158 95.83242,29.14946 35.62837,15.74577 69.76761,10.57634 108.6042,16.06871 30.77853,16.67911 64.01079,15.77692 93.67696,43.4906 36.89476,9.88845 -9.83679,40.20364 0.76294,65.1957 -10.2187,29.19826 -20.05336,58.37571 -30.20598,87.96642 -12.64738,28.14873 -66.46262,12.47612 -75.9897,-8.85491 -20.1772,-45.17653 -23.92445,14.68009 -26.10032,28.62467 -7.41554,37.65821 29.19581,69.06563 44.25441,102.34943 17.44011,38.54763 24.23589,49.07379 68.04536,89.68734 6.52531,22.42948 -22.21504,20.82932 -33.87243,9.15732 -22.3588,-21.14926 -32.21354,-36.32349 -57.30452,-48.55737 -9.93473,-39.03184 -49.40044,-71.86871 -62.88234,-99.46049 -12.48342,-29.44006 -16.81113,-73.24488 -51.37552,-57.03937 -41.25496,10.16442 -52.42951,63.93354 -54.78345,99.5391 -9.22664,31.86121 1.80284,46.37821 32.96708,66.8559 -4.53978,34.67243 -50.77391,4.29086 -56.17074,-21.33625 -3.3597,-15.95366 -3.5382,-32.90874 -5.33987,-48.67489 -0.50349,-33.74677 2.68822,-77.61954 0.38636,-98.73641 -2.8576,-26.21519 -0.94136,-35.68587 -28.98686,-42.05877 -16.01272,-23.94105 -6.09474,45.16645 -18.57954,57.55496 -16.1864,30.50439 -40.92879,51.30676 -41.7504,87.71486 -14.24652,51.96291 -2.24702,73.56499 33.05457,110.04794 35.66431,15.18644 1.70892,50.04418 -23.0985,39.17909 z m 18.04304,-5.14381 c 43.49612,-20.01373 -21.17312,-32.65015 -23.60125,-62.02195 -25.56313,-27.41799 -12.68546,-61.27411 -8.00302,-93.16405 1.08605,-34.56473 34.10339,-51.07948 41.52995,-82.07128 14.28888,-17.92745 -4.43041,-66.97805 21.68964,-65.87248 4.18838,23.08378 50.11996,11.73319 29.24676,39.14394 13.45982,31.02029 4.17943,66.40686 6.61859,99.34563 0.49421,29.89999 -6.69179,65.59495 19.97532,87.09275 15.77577,16.74634 47.72618,6.46632 16.20577,-7.47584 -32.1147,-11.66089 -16.817,-56.45431 -16.72838,-82.9364 3.63274,-33.34706 18.65956,-75.04757 56.31602,-81.37544 40.3336,-19.42835 45.31005,37.52982 62.26282,60.72865 15.01508,36.11867 48.72749,61.63915 59.83392,99.42223 32.75373,7.38625 41.63134,54.42022 77.40267,52.86486 11.27786,-21.99699 -46.83317,-40.3148 -51.90905,-67.907 -12.64822,-32.49073 -32.35891,-60.94103 -49.18696,-91.23723 -15.55707,-31.61244 -8.98012,-72.03612 7.58968,-101.63818 15.70871,15.80153 29.04149,49.06894 60.51977,43.21659 38.52711,3.59428 37.21041,-70.79473 52.54644,-94.42563 3.27886,-23.25156 11.13041,-40.05297 12.61042,-52.44132 -21.04369,-27.73931 -54.42604,-28.0077 -81.04804,-44.96211 -40.54716,-11.92032 -62.09133,-10.51266 -97.43379,-14.66128 -33.51332,-4.9282 -63.40727,-23.17897 -95.41616,-32.3656 -34.94353,-3.44693 -66.94519,-20.67544 -102.04994,-26.65706 -35.97993,-8.4523 -77.90571,-7.74163 -114.12655,-2.18472 -36.06931,5.36556 -67.10349,46.86405 -98.658608,11.15074 C 75.24805,122.9606 53.542151,100.64353 49.705251,67.215353 50.679076,30.141051 76.011426,25.836477 111.18518,48.98503 119.59692,64.232401 166.7124,88.096917 133.95082,52.07117 113.89887,27.901461 83.48081,-3.4782894 49.148188,9.475618 15.318525,22.868024 -5.0705621,72.314118 18.566885,105.81675 c 19.800229,42.32422 49.381982,54.81201 83.507325,84.29845 24.93954,27.11315 2.50166,59.07078 -5.657056,87.28114 -8.776973,37.62245 15.211996,50.25659 19.701716,84.71553 4.70283,36.0945 20.4442,82.14478 22.37038,111.73057 2.07028,31.79914 -10.79147,68.53656 10.46227,98.92078 5.55414,32.37148 12.73786,83.20087 54.00908,54.85567 3.73632,-29.71155 -36.01364,-36.33412 -30.41664,-74.47121 -2.11518,-51.89172 -3.48235,-101.16244 13.01283,-157.0815 0.54195,-20.85793 -4.41068,-66.36634 24.77341,-35.79659 38.3508,7.80942 48.35312,44.0202 46.96256,79.32353 12.15729,35.68168 -28.31925,66.21441 -13.62143,100.00232 9.78476,30.78486 29.16716,62.95074 35.20431,91.32696 1.99388,12.88361 16.71078,36.50246 32.50314,25.51958 z"
         id="path435"
         sodipodi:nodetypes="ccccscccsccccccccscsccsccccsssccccsscsssccccccccccccccccccccccccccccccccccccccssccccccccc" />
    </g>
  </g>
</svg>
