<?xml version="1.0" encoding="UTF-8" standalone="no"?>
<!-- Created with Inkscape (http://www.inkscape.org/) -->

<svg
   version="1.1"
   id="svg32"
   width="539.53076"
   height="190.58759"
   viewBox="0 0 539.53076 190.58758"
   sodipodi:docname="dogtrace_detail4.svg"
   inkscape:export-filename="dogtrace_outline.svg"
   inkscape:export-xdpi="96"
   inkscape:export-ydpi="96"
   inkscape:version="1.2.2 (b0a8486, 2022-12-01)"
   xmlns:inkscape="http://www.inkscape.org/namespaces/inkscape"
   xmlns:sodipodi="http://sodipodi.sourceforge.net/DTD/sodipodi-0.dtd"
   xmlns="http://www.w3.org/2000/svg"
   xmlns:svg="http://www.w3.org/2000/svg">
  <defs
     id="defs36" />
  <sodipodi:namedview
     id="namedview34"
     pagecolor="#ffffff"
     bordercolor="#000000"
     borderopacity="0.25"
     inkscape:showpageshadow="2"
     inkscape:pageopacity="0.0"
     inkscape:pagecheckerboard="0"
     inkscape:deskcolor="#d1d1d1"
     showgrid="false"
     inkscape:zoom="2.3094142"
     inkscape:cx="273.01296"
     inkscape:cy="99.159345"
     inkscape:window-width="1609"
     inkscape:window-height="1086"
     inkscape:window-x="2230"
     inkscape:window-y="129"
     inkscape:window-maximized="0"
     inkscape:current-layer="layer1" />
  <g
     inkscape:groupmode="layer"
     id="layer1"
     inkscape:label="Image 1"
     style="display:inline"
     transform="translate(-138.88066,-218.35547)">
    <g
       id="g200">
      <path
         style="display:inline;fill:#0506d5;stroke-width:1.33333"
         d="m 484.94826,406.97783 c 2.98894,-10.35777 27.68935,-11.33091 32.22914,-26.8867 18.22994,1.79162 -14.5281,20.48283 -26.76775,28.85192 l -3.15402,-0.48091 z m 142.60728,-6.5334 c 2.86755,-6.507 30.53473,-18.87116 0.95627,-20.80885 -30.72781,-3.3983 2.854,26.48905 -15.72772,16.44377 -16.3496,-25.39672 27.22619,-28.08424 33.88256,-11.5197 -1.71463,7.41476 -10.95025,17.7487 -19.11111,15.88478 z M 373.63891,374.43891 c 10.09628,-20.24494 17.22503,-28.41608 35.61862,-39.15243 -8.50054,14.07448 -25.19527,26.61554 -33.44073,40.35235 z m 185.01312,-22.77226 c -13.37318,-16.29404 -29.10085,-20.27209 -33.14278,-53.6246 -6.07517,-28.23224 -27.24688,-14.58566 -35.01995,-23.61272 6.14401,-17.88096 22.14595,-37.79633 42.90176,-40.96666 19.72206,-0.62983 20.21769,-8.49448 56.20853,-12.60133 17.14617,2.77786 33.40676,-5.02638 18.41363,5.8926 -12.61139,-2.21431 -26.34171,-4.8967 -57.91107,6.9977 -36.30788,3.59849 -47.78829,20.61482 -53.58001,39.13149 11.72034,7.91198 30.31735,-5.96755 43.61002,14.63732 -30.01549,-21.97148 -9.97601,4.88467 -7.99079,23.20155 7.41661,29.5157 20.99983,17.80112 29.72996,45.27799 l -1.18377,-1.27292 z m -390.42835,-8.96333 c -12.48471,-15.62168 -26.2927,-18.99386 -26.19468,-31.75618 15.05495,12.21524 27.93405,28.23719 45.36982,37.93856 1.64343,7.14716 -15.16319,-4.50664 -19.17514,-6.18238 z m 164.69983,7.36304 c -0.30059,-29.19195 -2.61432,-38.18518 -11.99571,-54.99774 -3.26437,-16.84207 -7.53937,-38.10471 -17.4364,-47.87059 -0.31001,-15.47041 14.79889,13.44141 16.18758,21.30076 2.82844,19.21131 10.27235,35.5628 17.17165,53.27867 -0.50694,11.82699 2.20877,22.1391 -3.92712,28.2889 z m 320.97108,-18.60904 c -15.36281,-11.04207 -9.62932,-35.94779 1.6725,-48.21661 3.45373,-11.31554 33.1848,-10.80809 17.42701,-0.57405 -20.63484,-8.49853 -35.78899,50.9618 -6.71462,42.47287 6.79884,7.38995 -8.34354,8.84546 -12.38489,6.31779 z m 5.3386,-26.71488 c 2.04642,-20.62478 17.36007,12.96433 0,0 z m -70.56654,0.4478 c -14.78881,-6.22885 -12.73284,-21.80646 3.41022,-21.37508 16.26334,-9.33953 39.21434,10.57291 17.69447,21.5409 -6.86071,1.22407 -14.34944,1.80762 -21.10469,-0.16582 z M 609.33331,295.142 c -2.59657,-16.35469 -30.92936,8.07531 0,0 z m -92.12549,-32.00683 c -8.21338,-12.73639 85.89225,-36.64383 45.22981,-4.88708 -14.91217,12.79141 -17.04019,-1.94897 -45.22981,4.88708 z"
         id="path202"
         sodipodi:nodetypes="ccccccccccccccccccccccccccccccccccccccccccccccccccccc" />
    </g>
  </g>
</svg>
