solid OpenSCAD_Model
  facet normal -1 0 0
    outer loop
      vertex 16.2 0 13.54
      vertex 16.2 3.99 14.54
      vertex 16.2 3.99 13.54
    endloop
  endfacet
  facet normal -1 -0 0
    outer loop
      vertex 16.2 3.99 14.54
      vertex 16.2 0 13.54
      vertex 16.2 0 14.54
    endloop
  endfacet
  facet normal 0 -1 0
    outer loop
      vertex 15.9 3.99 13.54
      vertex 16.2 3.99 14.54
      vertex 15.9 3.99 14.54
    endloop
  endfacet
  facet normal 0 -1 -0
    outer loop
      vertex 16.2 3.99 14.54
      vertex 15.9 3.99 13.54
      vertex 16.2 3.99 13.54
    endloop
  endfacet
  facet normal -0 0 1
    outer loop
      vertex 15.9 3.99 13.54
      vertex 16.2 0 13.54
      vertex 16.2 3.99 13.54
    endloop
  endfacet
  facet normal 0 0 1
    outer loop
      vertex 16.2 0 13.54
      vertex 15.9 3.99 13.54
      vertex 15.9 0 13.54
    endloop
  endfacet
  facet normal 1 -0 0
    outer loop
      vertex 18.14 0 14.54
      vertex 18.14 7.99 13.54
      vertex 18.14 7.99 14.54
    endloop
  endfacet
  facet normal 1 0 0
    outer loop
      vertex 18.14 7.99 13.54
      vertex 18.14 0 14.54
      vertex 18.14 0 13.54
    endloop
  endfacet
  facet normal -1 0 0
    outer loop
      vertex 18.74 0 13.54
      vertex 18.74 7.99 14.54
      vertex 18.74 7.99 13.54
    endloop
  endfacet
  facet normal -1 -0 0
    outer loop
      vertex 18.74 7.99 14.54
      vertex 18.74 0 13.54
      vertex 18.74 0 14.54
    endloop
  endfacet
  facet normal -0 0 1
    outer loop
      vertex 18.14 7.99 13.54
      vertex 18.74 0 13.54
      vertex 18.74 7.99 13.54
    endloop
  endfacet
  facet normal 0 0 1
    outer loop
      vertex 18.74 0 13.54
      vertex 18.14 7.99 13.54
      vertex 18.14 0 13.54
    endloop
  endfacet
  facet normal 0 -1 0
    outer loop
      vertex 18.14 7.99 13.54
      vertex 18.74 7.99 14.54
      vertex 18.14 7.99 14.54
    endloop
  endfacet
  facet normal 0 -1 -0
    outer loop
      vertex 18.74 7.99 14.54
      vertex 18.14 7.99 13.54
      vertex 18.74 7.99 13.54
    endloop
  endfacet
  facet normal 1 -0 0
    outer loop
      vertex 20.68 0 14.54
      vertex 20.68 3.99 13.54
      vertex 20.68 3.99 14.54
    endloop
  endfacet
  facet normal 1 0 0
    outer loop
      vertex 20.68 3.99 13.54
      vertex 20.68 0 14.54
      vertex 20.68 0 13.54
    endloop
  endfacet
  facet normal -1 0 0
    outer loop
      vertex 21.28 0 13.54
      vertex 21.28 3.99 14.54
      vertex 21.28 3.99 13.54
    endloop
  endfacet
  facet normal -1 -0 0
    outer loop
      vertex 21.28 3.99 14.54
      vertex 21.28 0 13.54
      vertex 21.28 0 14.54
    endloop
  endfacet
  facet normal -0 0 1
    outer loop
      vertex 20.68 3.99 13.54
      vertex 21.28 0 13.54
      vertex 21.28 3.99 13.54
    endloop
  endfacet
  facet normal 0 0 1
    outer loop
      vertex 21.28 0 13.54
      vertex 20.68 3.99 13.54
      vertex 20.68 0 13.54
    endloop
  endfacet
  facet normal 0 -1 0
    outer loop
      vertex 20.68 3.99 13.54
      vertex 21.28 3.99 14.54
      vertex 20.68 3.99 14.54
    endloop
  endfacet
  facet normal 0 -1 -0
    outer loop
      vertex 21.28 3.99 14.54
      vertex 20.68 3.99 13.54
      vertex 21.28 3.99 13.54
    endloop
  endfacet
  facet normal 1 -0 0
    outer loop
      vertex 23.22 0 14.54
      vertex 23.22 3.99 13.54
      vertex 23.22 3.99 14.54
    endloop
  endfacet
  facet normal 1 0 0
    outer loop
      vertex 23.22 3.99 13.54
      vertex 23.22 0 14.54
      vertex 23.22 0 13.54
    endloop
  endfacet
  facet normal -1 0 0
    outer loop
      vertex 23.82 0 13.54
      vertex 23.82 3.99 14.54
      vertex 23.82 3.99 13.54
    endloop
  endfacet
  facet normal -1 -0 0
    outer loop
      vertex 23.82 3.99 14.54
      vertex 23.82 0 13.54
      vertex 23.82 0 14.54
    endloop
  endfacet
  facet normal -0 0 1
    outer loop
      vertex 23.22 3.99 13.54
      vertex 23.82 0 13.54
      vertex 23.82 3.99 13.54
    endloop
  endfacet
  facet normal 0 0 1
    outer loop
      vertex 23.82 0 13.54
      vertex 23.22 3.99 13.54
      vertex 23.22 0 13.54
    endloop
  endfacet
  facet normal 0 -1 0
    outer loop
      vertex 23.22 3.99 13.54
      vertex 23.82 3.99 14.54
      vertex 23.22 3.99 14.54
    endloop
  endfacet
  facet normal 0 -1 -0
    outer loop
      vertex 23.82 3.99 14.54
      vertex 23.22 3.99 13.54
      vertex 23.82 3.99 13.54
    endloop
  endfacet
  facet normal 1 -0 0
    outer loop
      vertex 25.76 0 14.54
      vertex 25.76 3.99 13.54
      vertex 25.76 3.99 14.54
    endloop
  endfacet
  facet normal 1 0 0
    outer loop
      vertex 25.76 3.99 13.54
      vertex 25.76 0 14.54
      vertex 25.76 0 13.54
    endloop
  endfacet
  facet normal -1 0 0
    outer loop
      vertex 26.36 0 13.54
      vertex 26.36 3.99 14.54
      vertex 26.36 3.99 13.54
    endloop
  endfacet
  facet normal -1 -0 0
    outer loop
      vertex 26.36 3.99 14.54
      vertex 26.36 0 13.54
      vertex 26.36 0 14.54
    endloop
  endfacet
  facet normal 0 -1 0
    outer loop
      vertex 25.76 3.99 13.54
      vertex 26.36 3.99 14.54
      vertex 25.76 3.99 14.54
    endloop
  endfacet
  facet normal 0 -1 -0
    outer loop
      vertex 26.36 3.99 14.54
      vertex 25.76 3.99 13.54
      vertex 26.36 3.99 13.54
    endloop
  endfacet
  facet normal -0 0 1
    outer loop
      vertex 25.76 3.99 13.54
      vertex 26.36 0 13.54
      vertex 26.36 3.99 13.54
    endloop
  endfacet
  facet normal 0 0 1
    outer loop
      vertex 26.36 0 13.54
      vertex 25.76 3.99 13.54
      vertex 25.76 0 13.54
    endloop
  endfacet
  facet normal 1 -0 0
    outer loop
      vertex 28.3 0 14.54
      vertex 28.3 3.99 13.54
      vertex 28.3 3.99 14.54
    endloop
  endfacet
  facet normal 1 0 0
    outer loop
      vertex 28.3 3.99 13.54
      vertex 28.3 0 14.54
      vertex 28.3 0 13.54
    endloop
  endfacet
  facet normal -1 0 0
    outer loop
      vertex 28.9 0 13.54
      vertex 28.9 3.99 14.54
      vertex 28.9 3.99 13.54
    endloop
  endfacet
  facet normal -1 -0 0
    outer loop
      vertex 28.9 3.99 14.54
      vertex 28.9 0 13.54
      vertex 28.9 0 14.54
    endloop
  endfacet
  facet normal 0 -1 0
    outer loop
      vertex 28.3 3.99 13.54
      vertex 28.9 3.99 14.54
      vertex 28.3 3.99 14.54
    endloop
  endfacet
  facet normal 0 -1 -0
    outer loop
      vertex 28.9 3.99 14.54
      vertex 28.3 3.99 13.54
      vertex 28.9 3.99 13.54
    endloop
  endfacet
  facet normal -0 0 1
    outer loop
      vertex 28.3 3.99 13.54
      vertex 28.9 0 13.54
      vertex 28.9 3.99 13.54
    endloop
  endfacet
  facet normal 0 0 1
    outer loop
      vertex 28.9 0 13.54
      vertex 28.3 3.99 13.54
      vertex 28.3 0 13.54
    endloop
  endfacet
  facet normal 1 -0 0
    outer loop
      vertex 30.84 0 14.54
      vertex 30.84 7.99 13.54
      vertex 30.84 7.99 14.54
    endloop
  endfacet
  facet normal 1 0 0
    outer loop
      vertex 30.84 7.99 13.54
      vertex 30.84 0 14.54
      vertex 30.84 0 13.54
    endloop
  endfacet
  facet normal -1 0 0
    outer loop
      vertex 31.44 0 13.54
      vertex 31.44 7.99 14.54
      vertex 31.44 7.99 13.54
    endloop
  endfacet
  facet normal -1 -0 0
    outer loop
      vertex 31.44 7.99 14.54
      vertex 31.44 0 13.54
      vertex 31.44 0 14.54
    endloop
  endfacet
  facet normal -0 0 1
    outer loop
      vertex 30.84 7.99 13.54
      vertex 31.44 0 13.54
      vertex 31.44 7.99 13.54
    endloop
  endfacet
  facet normal 0 0 1
    outer loop
      vertex 31.44 0 13.54
      vertex 30.84 7.99 13.54
      vertex 30.84 0 13.54
    endloop
  endfacet
  facet normal 0 -1 0
    outer loop
      vertex 30.84 7.99 13.54
      vertex 31.44 7.99 14.54
      vertex 30.84 7.99 14.54
    endloop
  endfacet
  facet normal 0 -1 -0
    outer loop
      vertex 31.44 7.99 14.54
      vertex 30.84 7.99 13.54
      vertex 31.44 7.99 13.54
    endloop
  endfacet
  facet normal 1 -0 0
    outer loop
      vertex 33.38 0 14.54
      vertex 33.38 3.99 13.54
      vertex 33.38 3.99 14.54
    endloop
  endfacet
  facet normal 1 0 0
    outer loop
      vertex 33.38 3.99 13.54
      vertex 33.38 0 14.54
      vertex 33.38 0 13.54
    endloop
  endfacet
  facet normal -1 0 0
    outer loop
      vertex 33.98 0 13.54
      vertex 33.98 3.99 14.54
      vertex 33.98 3.99 13.54
    endloop
  endfacet
  facet normal -1 -0 0
    outer loop
      vertex 33.98 3.99 14.54
      vertex 33.98 0 13.54
      vertex 33.98 0 14.54
    endloop
  endfacet
  facet normal -0 0 1
    outer loop
      vertex 33.38 3.99 13.54
      vertex 33.98 0 13.54
      vertex 33.98 3.99 13.54
    endloop
  endfacet
  facet normal 0 0 1
    outer loop
      vertex 33.98 0 13.54
      vertex 33.38 3.99 13.54
      vertex 33.38 0 13.54
    endloop
  endfacet
  facet normal 0 -1 0
    outer loop
      vertex 33.38 3.99 13.54
      vertex 33.98 3.99 14.54
      vertex 33.38 3.99 14.54
    endloop
  endfacet
  facet normal 0 -1 -0
    outer loop
      vertex 33.98 3.99 14.54
      vertex 33.38 3.99 13.54
      vertex 33.98 3.99 13.54
    endloop
  endfacet
  facet normal 1 -0 0
    outer loop
      vertex 35.92 0 14.54
      vertex 35.92 3.99 13.54
      vertex 35.92 3.99 14.54
    endloop
  endfacet
  facet normal 1 0 0
    outer loop
      vertex 35.92 3.99 13.54
      vertex 35.92 0 14.54
      vertex 35.92 0 13.54
    endloop
  endfacet
  facet normal -1 0 0
    outer loop
      vertex 36.52 0 13.54
      vertex 36.52 3.99 14.54
      vertex 36.52 3.99 13.54
    endloop
  endfacet
  facet normal -1 -0 0
    outer loop
      vertex 36.52 3.99 14.54
      vertex 36.52 0 13.54
      vertex 36.52 0 14.54
    endloop
  endfacet
  facet normal 0 -1 0
    outer loop
      vertex 35.92 3.99 13.54
      vertex 36.52 3.99 14.54
      vertex 35.92 3.99 14.54
    endloop
  endfacet
  facet normal 0 -1 -0
    outer loop
      vertex 36.52 3.99 14.54
      vertex 35.92 3.99 13.54
      vertex 36.52 3.99 13.54
    endloop
  endfacet
  facet normal -0 0 1
    outer loop
      vertex 35.92 3.99 13.54
      vertex 36.52 0 13.54
      vertex 36.52 3.99 13.54
    endloop
  endfacet
  facet normal 0 0 1
    outer loop
      vertex 36.52 0 13.54
      vertex 35.92 3.99 13.54
      vertex 35.92 0 13.54
    endloop
  endfacet
  facet normal 1 -0 0
    outer loop
      vertex 38.46 0 14.54
      vertex 38.46 3.99 13.54
      vertex 38.46 3.99 14.54
    endloop
  endfacet
  facet normal 1 0 0
    outer loop
      vertex 38.46 3.99 13.54
      vertex 38.46 0 14.54
      vertex 38.46 0 13.54
    endloop
  endfacet
  facet normal -1 0 0
    outer loop
      vertex 39.06 0 13.54
      vertex 39.06 3.99 14.54
      vertex 39.06 3.99 13.54
    endloop
  endfacet
  facet normal -1 -0 0
    outer loop
      vertex 39.06 3.99 14.54
      vertex 39.06 0 13.54
      vertex 39.06 0 14.54
    endloop
  endfacet
  facet normal 0 -1 0
    outer loop
      vertex 38.46 3.99 13.54
      vertex 39.06 3.99 14.54
      vertex 38.46 3.99 14.54
    endloop
  endfacet
  facet normal 0 -1 -0
    outer loop
      vertex 39.06 3.99 14.54
      vertex 38.46 3.99 13.54
      vertex 39.06 3.99 13.54
    endloop
  endfacet
  facet normal -0 0 1
    outer loop
      vertex 38.46 3.99 13.54
      vertex 39.06 0 13.54
      vertex 39.06 3.99 13.54
    endloop
  endfacet
  facet normal 0 0 1
    outer loop
      vertex 39.06 0 13.54
      vertex 38.46 3.99 13.54
      vertex 38.46 0 13.54
    endloop
  endfacet
  facet normal 1 -0 0
    outer loop
      vertex 41 0 14.54
      vertex 41 3.99 13.54
      vertex 41 3.99 14.54
    endloop
  endfacet
  facet normal 1 0 0
    outer loop
      vertex 41 3.99 13.54
      vertex 41 0 14.54
      vertex 41 0 13.54
    endloop
  endfacet
  facet normal -1 0 0
    outer loop
      vertex 41.6 0 13.54
      vertex 41.6 3.99 14.54
      vertex 41.6 3.99 13.54
    endloop
  endfacet
  facet normal -1 -0 0
    outer loop
      vertex 41.6 3.99 14.54
      vertex 41.6 0 13.54
      vertex 41.6 0 14.54
    endloop
  endfacet
  facet normal 0 -1 0
    outer loop
      vertex 41 3.99 13.54
      vertex 41.6 3.99 14.54
      vertex 41 3.99 14.54
    endloop
  endfacet
  facet normal 0 -1 -0
    outer loop
      vertex 41.6 3.99 14.54
      vertex 41 3.99 13.54
      vertex 41.6 3.99 13.54
    endloop
  endfacet
  facet normal -0 0 1
    outer loop
      vertex 41 3.99 13.54
      vertex 41.6 0 13.54
      vertex 41.6 3.99 13.54
    endloop
  endfacet
  facet normal 0 0 1
    outer loop
      vertex 41.6 0 13.54
      vertex 41 3.99 13.54
      vertex 41 0 13.54
    endloop
  endfacet
  facet normal 1 -0 0
    outer loop
      vertex 43.54 0 14.54
      vertex 43.54 7.99 13.54
      vertex 43.54 7.99 14.54
    endloop
  endfacet
  facet normal 1 0 0
    outer loop
      vertex 43.54 7.99 13.54
      vertex 43.54 0 14.54
      vertex 43.54 0 13.54
    endloop
  endfacet
  facet normal -1 0 0
    outer loop
      vertex 44.14 0 13.54
      vertex 44.14 7.99 14.54
      vertex 44.14 7.99 13.54
    endloop
  endfacet
  facet normal -1 -0 0
    outer loop
      vertex 44.14 7.99 14.54
      vertex 44.14 0 13.54
      vertex 44.14 0 14.54
    endloop
  endfacet
  facet normal 0 -1 0
    outer loop
      vertex 43.54 7.99 13.54
      vertex 44.14 7.99 14.54
      vertex 43.54 7.99 14.54
    endloop
  endfacet
  facet normal 0 -1 -0
    outer loop
      vertex 44.14 7.99 14.54
      vertex 43.54 7.99 13.54
      vertex 44.14 7.99 13.54
    endloop
  endfacet
  facet normal -0 0 1
    outer loop
      vertex 43.54 7.99 13.54
      vertex 44.14 0 13.54
      vertex 44.14 7.99 13.54
    endloop
  endfacet
  facet normal 0 0 1
    outer loop
      vertex 44.14 0 13.54
      vertex 43.54 7.99 13.54
      vertex 43.54 0 13.54
    endloop
  endfacet
  facet normal 1 -0 0
    outer loop
      vertex 46.08 0 14.54
      vertex 46.08 3.99 13.54
      vertex 46.08 3.99 14.54
    endloop
  endfacet
  facet normal 1 0 0
    outer loop
      vertex 46.08 3.99 13.54
      vertex 46.08 0 14.54
      vertex 46.08 0 13.54
    endloop
  endfacet
  facet normal -1 0 0
    outer loop
      vertex 46.68 0 13.54
      vertex 46.68 3.99 14.54
      vertex 46.68 3.99 13.54
    endloop
  endfacet
  facet normal -1 -0 0
    outer loop
      vertex 46.68 3.99 14.54
      vertex 46.68 0 13.54
      vertex 46.68 0 14.54
    endloop
  endfacet
  facet normal -0 0 1
    outer loop
      vertex 46.08 3.99 13.54
      vertex 46.68 0 13.54
      vertex 46.68 3.99 13.54
    endloop
  endfacet
  facet normal 0 0 1
    outer loop
      vertex 46.68 0 13.54
      vertex 46.08 3.99 13.54
      vertex 46.08 0 13.54
    endloop
  endfacet
  facet normal 0 -1 0
    outer loop
      vertex 46.08 3.99 13.54
      vertex 46.68 3.99 14.54
      vertex 46.08 3.99 14.54
    endloop
  endfacet
  facet normal 0 -1 -0
    outer loop
      vertex 46.68 3.99 14.54
      vertex 46.08 3.99 13.54
      vertex 46.68 3.99 13.54
    endloop
  endfacet
  facet normal 1 -0 0
    outer loop
      vertex 48.62 0 14.54
      vertex 48.62 3.99 13.54
      vertex 48.62 3.99 14.54
    endloop
  endfacet
  facet normal 1 0 0
    outer loop
      vertex 48.62 3.99 13.54
      vertex 48.62 0 14.54
      vertex 48.62 0 13.54
    endloop
  endfacet
  facet normal -1 0 0
    outer loop
      vertex 49.22 0 13.54
      vertex 49.22 3.99 14.54
      vertex 49.22 3.99 13.54
    endloop
  endfacet
  facet normal -1 -0 0
    outer loop
      vertex 49.22 3.99 14.54
      vertex 49.22 0 13.54
      vertex 49.22 0 14.54
    endloop
  endfacet
  facet normal 0 -1 0
    outer loop
      vertex 48.62 3.99 13.54
      vertex 49.22 3.99 14.54
      vertex 48.62 3.99 14.54
    endloop
  endfacet
  facet normal 0 -1 -0
    outer loop
      vertex 49.22 3.99 14.54
      vertex 48.62 3.99 13.54
      vertex 49.22 3.99 13.54
    endloop
  endfacet
  facet normal -0 0 1
    outer loop
      vertex 48.62 3.99 13.54
      vertex 49.22 0 13.54
      vertex 49.22 3.99 13.54
    endloop
  endfacet
  facet normal 0 0 1
    outer loop
      vertex 49.22 0 13.54
      vertex 48.62 3.99 13.54
      vertex 48.62 0 13.54
    endloop
  endfacet
  facet normal 1 -0 0
    outer loop
      vertex 51.16 0 14.54
      vertex 51.16 3.99 13.54
      vertex 51.16 3.99 14.54
    endloop
  endfacet
  facet normal 1 0 0
    outer loop
      vertex 51.16 3.99 13.54
      vertex 51.16 0 14.54
      vertex 51.16 0 13.54
    endloop
  endfacet
  facet normal -1 0 0
    outer loop
      vertex 51.76 0 13.54
      vertex 51.76 3.99 14.54
      vertex 51.76 3.99 13.54
    endloop
  endfacet
  facet normal -1 -0 0
    outer loop
      vertex 51.76 3.99 14.54
      vertex 51.76 0 13.54
      vertex 51.76 0 14.54
    endloop
  endfacet
  facet normal -0 0 1
    outer loop
      vertex 51.16 3.99 13.54
      vertex 51.76 0 13.54
      vertex 51.76 3.99 13.54
    endloop
  endfacet
  facet normal 0 0 1
    outer loop
      vertex 51.76 0 13.54
      vertex 51.16 3.99 13.54
      vertex 51.16 0 13.54
    endloop
  endfacet
  facet normal 0 -1 0
    outer loop
      vertex 51.16 3.99 13.54
      vertex 51.76 3.99 14.54
      vertex 51.16 3.99 14.54
    endloop
  endfacet
  facet normal 0 -1 -0
    outer loop
      vertex 51.76 3.99 14.54
      vertex 51.16 3.99 13.54
      vertex 51.76 3.99 13.54
    endloop
  endfacet
  facet normal 1 -0 0
    outer loop
      vertex 53.7 0 14.54
      vertex 53.7 3.99 13.54
      vertex 53.7 3.99 14.54
    endloop
  endfacet
  facet normal 1 0 0
    outer loop
      vertex 53.7 3.99 13.54
      vertex 53.7 0 14.54
      vertex 53.7 0 13.54
    endloop
  endfacet
  facet normal -1 0 0
    outer loop
      vertex 54.3 0 13.54
      vertex 54.3 3.99 14.54
      vertex 54.3 3.99 13.54
    endloop
  endfacet
  facet normal -1 -0 0
    outer loop
      vertex 54.3 3.99 14.54
      vertex 54.3 0 13.54
      vertex 54.3 0 14.54
    endloop
  endfacet
  facet normal -0 0 1
    outer loop
      vertex 53.7 3.99 13.54
      vertex 54.3 0 13.54
      vertex 54.3 3.99 13.54
    endloop
  endfacet
  facet normal 0 0 1
    outer loop
      vertex 54.3 0 13.54
      vertex 53.7 3.99 13.54
      vertex 53.7 0 13.54
    endloop
  endfacet
  facet normal 0 -1 0
    outer loop
      vertex 53.7 3.99 13.54
      vertex 54.3 3.99 14.54
      vertex 53.7 3.99 14.54
    endloop
  endfacet
  facet normal 0 -1 -0
    outer loop
      vertex 54.3 3.99 14.54
      vertex 53.7 3.99 13.54
      vertex 54.3 3.99 13.54
    endloop
  endfacet
  facet normal -0 0 1
    outer loop
      vertex 13.36 22 14.54
      vertex 15.9 11 14.54
      vertex 15.9 22 14.54
    endloop
  endfacet
  facet normal 0 0 1
    outer loop
      vertex 13.36 0 14.54
      vertex 15.9 11 14.54
      vertex 13.36 22 14.54
    endloop
  endfacet
  facet normal 0 0 1
    outer loop
      vertex 15.9 11 14.54
      vertex 13.36 0 14.54
      vertex 15.9 3.99 14.54
    endloop
  endfacet
  facet normal 0 0 1
    outer loop
      vertex 15.9 3.99 14.54
      vertex 13.36 0 14.54
      vertex 15.9 0 14.54
    endloop
  endfacet
  facet normal 0 0 1
    outer loop
      vertex 56.54 11 14.54
      vertex 54.3 3.99 14.54
      vertex 56.54 0 14.54
    endloop
  endfacet
  facet normal 0 0 1
    outer loop
      vertex 56.54 11 14.54
      vertex 53.7 3.99 14.54
      vertex 54.3 3.99 14.54
    endloop
  endfacet
  facet normal 0 0 1
    outer loop
      vertex 53.7 3.99 14.54
      vertex 51.76 3.99 14.54
      vertex 53.7 0 14.54
    endloop
  endfacet
  facet normal 0 0 1
    outer loop
      vertex 56.54 11 14.54
      vertex 51.76 3.99 14.54
      vertex 53.7 3.99 14.54
    endloop
  endfacet
  facet normal 0 0 1
    outer loop
      vertex 56.54 11 14.54
      vertex 51.16 3.99 14.54
      vertex 51.76 3.99 14.54
    endloop
  endfacet
  facet normal 0 0 1
    outer loop
      vertex 51.16 3.99 14.54
      vertex 49.22 3.99 14.54
      vertex 51.16 0 14.54
    endloop
  endfacet
  facet normal 0 0 1
    outer loop
      vertex 56.54 11 14.54
      vertex 49.22 3.99 14.54
      vertex 51.16 3.99 14.54
    endloop
  endfacet
  facet normal -0 0 1
    outer loop
      vertex 44.14 7.99 14.54
      vertex 49.22 3.99 14.54
      vertex 56.54 11 14.54
    endloop
  endfacet
  facet normal 0 0 1
    outer loop
      vertex 48.62 3.99 14.54
      vertex 46.68 3.99 14.54
      vertex 48.62 0 14.54
    endloop
  endfacet
  facet normal 0 0 1
    outer loop
      vertex 49.22 3.99 14.54
      vertex 44.14 7.99 14.54
      vertex 48.62 3.99 14.54
    endloop
  endfacet
  facet normal 0 0 1
    outer loop
      vertex 48.62 3.99 14.54
      vertex 44.14 7.99 14.54
      vertex 46.68 3.99 14.54
    endloop
  endfacet
  facet normal 0 0 1
    outer loop
      vertex 44.14 0 14.54
      vertex 46.08 3.99 14.54
      vertex 44.14 7.99 14.54
    endloop
  endfacet
  facet normal 0 0 1
    outer loop
      vertex 46.68 3.99 14.54
      vertex 44.14 7.99 14.54
      vertex 46.08 3.99 14.54
    endloop
  endfacet
  facet normal 0 0 1
    outer loop
      vertex 56.54 11 14.54
      vertex 43.54 7.99 14.54
      vertex 44.14 7.99 14.54
    endloop
  endfacet
  facet normal 0 0 1
    outer loop
      vertex 43.54 7.99 14.54
      vertex 41.6 3.99 14.54
      vertex 43.54 0 14.54
    endloop
  endfacet
  facet normal 0 0 1
    outer loop
      vertex 43.54 7.99 14.54
      vertex 41 3.99 14.54
      vertex 41.6 3.99 14.54
    endloop
  endfacet
  facet normal 0 0 1
    outer loop
      vertex 41 3.99 14.54
      vertex 39.06 3.99 14.54
      vertex 41 0 14.54
    endloop
  endfacet
  facet normal 0 0 1
    outer loop
      vertex 43.54 7.99 14.54
      vertex 39.06 3.99 14.54
      vertex 41 3.99 14.54
    endloop
  endfacet
  facet normal 0 0 1
    outer loop
      vertex 43.54 7.99 14.54
      vertex 38.46 3.99 14.54
      vertex 39.06 3.99 14.54
    endloop
  endfacet
  facet normal 0 0 1
    outer loop
      vertex 38.46 3.99 14.54
      vertex 36.52 3.99 14.54
      vertex 38.46 0 14.54
    endloop
  endfacet
  facet normal 0 0 1
    outer loop
      vertex 43.54 7.99 14.54
      vertex 36.52 3.99 14.54
      vertex 38.46 3.99 14.54
    endloop
  endfacet
  facet normal -0 0 1
    outer loop
      vertex 31.44 7.99 14.54
      vertex 36.52 3.99 14.54
      vertex 43.54 7.99 14.54
    endloop
  endfacet
  facet normal 0 0 1
    outer loop
      vertex 35.92 3.99 14.54
      vertex 33.98 3.99 14.54
      vertex 35.92 0 14.54
    endloop
  endfacet
  facet normal 0 0 1
    outer loop
      vertex 36.52 3.99 14.54
      vertex 31.44 7.99 14.54
      vertex 35.92 3.99 14.54
    endloop
  endfacet
  facet normal 0 0 1
    outer loop
      vertex 35.92 3.99 14.54
      vertex 31.44 7.99 14.54
      vertex 33.98 3.99 14.54
    endloop
  endfacet
  facet normal 0 0 1
    outer loop
      vertex 31.44 0 14.54
      vertex 33.38 3.99 14.54
      vertex 31.44 7.99 14.54
    endloop
  endfacet
  facet normal 0 0 1
    outer loop
      vertex 33.98 3.99 14.54
      vertex 31.44 7.99 14.54
      vertex 33.38 3.99 14.54
    endloop
  endfacet
  facet normal 0 0 1
    outer loop
      vertex 56.54 11 14.54
      vertex 31.44 7.99 14.54
      vertex 43.54 7.99 14.54
    endloop
  endfacet
  facet normal -0 0 1
    outer loop
      vertex 15.9 11 14.54
      vertex 31.44 7.99 14.54
      vertex 56.54 11 14.54
    endloop
  endfacet
  facet normal 0 0 1
    outer loop
      vertex 30.84 7.99 14.54
      vertex 28.9 3.99 14.54
      vertex 30.84 0 14.54
    endloop
  endfacet
  facet normal 0 0 1
    outer loop
      vertex 30.84 7.99 14.54
      vertex 28.3 3.99 14.54
      vertex 28.9 3.99 14.54
    endloop
  endfacet
  facet normal 0 0 1
    outer loop
      vertex 28.3 3.99 14.54
      vertex 26.36 3.99 14.54
      vertex 28.3 0 14.54
    endloop
  endfacet
  facet normal 0 0 1
    outer loop
      vertex 30.84 7.99 14.54
      vertex 26.36 3.99 14.54
      vertex 28.3 3.99 14.54
    endloop
  endfacet
  facet normal 0 0 1
    outer loop
      vertex 30.84 7.99 14.54
      vertex 25.76 3.99 14.54
      vertex 26.36 3.99 14.54
    endloop
  endfacet
  facet normal 0 0 1
    outer loop
      vertex 25.76 3.99 14.54
      vertex 23.82 3.99 14.54
      vertex 25.76 0 14.54
    endloop
  endfacet
  facet normal 0 0 1
    outer loop
      vertex 30.84 7.99 14.54
      vertex 23.82 3.99 14.54
      vertex 25.76 3.99 14.54
    endloop
  endfacet
  facet normal -0 0 1
    outer loop
      vertex 18.74 7.99 14.54
      vertex 23.82 3.99 14.54
      vertex 30.84 7.99 14.54
    endloop
  endfacet
  facet normal 0 0 1
    outer loop
      vertex 23.22 3.99 14.54
      vertex 21.28 3.99 14.54
      vertex 23.22 0 14.54
    endloop
  endfacet
  facet normal 0 0 1
    outer loop
      vertex 23.82 3.99 14.54
      vertex 18.74 7.99 14.54
      vertex 23.22 3.99 14.54
    endloop
  endfacet
  facet normal 0 0 1
    outer loop
      vertex 23.22 3.99 14.54
      vertex 18.74 7.99 14.54
      vertex 21.28 3.99 14.54
    endloop
  endfacet
  facet normal 0 0 1
    outer loop
      vertex 18.74 0 14.54
      vertex 20.68 3.99 14.54
      vertex 18.74 7.99 14.54
    endloop
  endfacet
  facet normal 0 0 1
    outer loop
      vertex 21.28 3.99 14.54
      vertex 18.74 7.99 14.54
      vertex 20.68 3.99 14.54
    endloop
  endfacet
  facet normal 0 0 1
    outer loop
      vertex 31.44 7.99 14.54
      vertex 15.9 11 14.54
      vertex 30.84 7.99 14.54
    endloop
  endfacet
  facet normal 0 0 1
    outer loop
      vertex 30.84 7.99 14.54
      vertex 15.9 11 14.54
      vertex 18.74 7.99 14.54
    endloop
  endfacet
  facet normal 0 0 1
    outer loop
      vertex 18.14 7.99 14.54
      vertex 16.2 3.99 14.54
      vertex 18.14 0 14.54
    endloop
  endfacet
  facet normal 0 0 1
    outer loop
      vertex 18.74 7.99 14.54
      vertex 15.9 11 14.54
      vertex 18.14 7.99 14.54
    endloop
  endfacet
  facet normal 0 0 1
    outer loop
      vertex 15.9 3.99 14.54
      vertex 18.14 7.99 14.54
      vertex 15.9 11 14.54
    endloop
  endfacet
  facet normal 0 0 1
    outer loop
      vertex 18.14 7.99 14.54
      vertex 15.9 3.99 14.54
      vertex 16.2 3.99 14.54
    endloop
  endfacet
  facet normal 0 0 1
    outer loop
      vertex 56.54 0 14.54
      vertex 54.3 3.99 14.54
      vertex 54.3 0 14.54
    endloop
  endfacet
  facet normal 0 0 1
    outer loop
      vertex 53.7 0 14.54
      vertex 51.76 3.99 14.54
      vertex 51.76 0 14.54
    endloop
  endfacet
  facet normal 0 0 1
    outer loop
      vertex 51.16 0 14.54
      vertex 49.22 3.99 14.54
      vertex 49.22 0 14.54
    endloop
  endfacet
  facet normal 0 0 1
    outer loop
      vertex 48.62 0 14.54
      vertex 46.68 3.99 14.54
      vertex 46.68 0 14.54
    endloop
  endfacet
  facet normal 0 0 1
    outer loop
      vertex 46.08 3.99 14.54
      vertex 44.14 0 14.54
      vertex 46.08 0 14.54
    endloop
  endfacet
  facet normal 0 0 1
    outer loop
      vertex 43.54 0 14.54
      vertex 41.6 3.99 14.54
      vertex 41.6 0 14.54
    endloop
  endfacet
  facet normal 0 0 1
    outer loop
      vertex 41 0 14.54
      vertex 39.06 3.99 14.54
      vertex 39.06 0 14.54
    endloop
  endfacet
  facet normal 0 0 1
    outer loop
      vertex 38.46 0 14.54
      vertex 36.52 3.99 14.54
      vertex 36.52 0 14.54
    endloop
  endfacet
  facet normal 0 0 1
    outer loop
      vertex 35.92 0 14.54
      vertex 33.98 3.99 14.54
      vertex 33.98 0 14.54
    endloop
  endfacet
  facet normal 0 0 1
    outer loop
      vertex 33.38 3.99 14.54
      vertex 31.44 0 14.54
      vertex 33.38 0 14.54
    endloop
  endfacet
  facet normal 0 0 1
    outer loop
      vertex 30.84 0 14.54
      vertex 28.9 3.99 14.54
      vertex 28.9 0 14.54
    endloop
  endfacet
  facet normal 0 0 1
    outer loop
      vertex 28.3 0 14.54
      vertex 26.36 3.99 14.54
      vertex 26.36 0 14.54
    endloop
  endfacet
  facet normal 0 0 1
    outer loop
      vertex 25.76 0 14.54
      vertex 23.82 3.99 14.54
      vertex 23.82 0 14.54
    endloop
  endfacet
  facet normal 0 0 1
    outer loop
      vertex 23.22 0 14.54
      vertex 21.28 3.99 14.54
      vertex 21.28 0 14.54
    endloop
  endfacet
  facet normal 0 0 1
    outer loop
      vertex 20.68 3.99 14.54
      vertex 18.74 0 14.54
      vertex 20.68 0 14.54
    endloop
  endfacet
  facet normal 0 0 1
    outer loop
      vertex 18.14 0 14.54
      vertex 16.2 3.99 14.54
      vertex 16.2 0 14.54
    endloop
  endfacet
  facet normal 1 -0 0
    outer loop
      vertex 56.54 0 14.54
      vertex 56.54 11 0
      vertex 56.54 11 14.54
    endloop
  endfacet
  facet normal 1 0 0
    outer loop
      vertex 56.54 11 0
      vertex 56.54 0 14.54
      vertex 56.54 0 0
    endloop
  endfacet
  facet normal 0 1 -0
    outer loop
      vertex 56.54 11 0
      vertex 15.9 11 14.54
      vertex 56.54 11 14.54
    endloop
  endfacet
  facet normal 0 1 0
    outer loop
      vertex 15.9 11 14.54
      vertex 56.54 11 0
      vertex 15.9 11 0
    endloop
  endfacet
  facet normal 0 0 -1
    outer loop
      vertex 56.54 0 0
      vertex 15.9 11 0
      vertex 56.54 11 0
    endloop
  endfacet
  facet normal 0 0 -1
    outer loop
      vertex 0 0 0
      vertex 15.9 11 0
      vertex 56.54 0 0
    endloop
  endfacet
  facet normal 0 0 -1
    outer loop
      vertex 0 22 0
      vertex 15.9 11 0
      vertex 0 0 0
    endloop
  endfacet
  facet normal 0 0 -1
    outer loop
      vertex 15.9 11 0
      vertex 0 22 0
      vertex 15.9 22 0
    endloop
  endfacet
  facet normal 0 -1 0
    outer loop
      vertex 0 0 7.54
      vertex 2.54 0 2.54
      vertex 2.54 0 7.54
    endloop
  endfacet
  facet normal 0 -1 0
    outer loop
      vertex 0 0 0
      vertex 5.74 0 2.54
      vertex 2.54 0 2.54
    endloop
  endfacet
  facet normal 0 -1 -0
    outer loop
      vertex 5.74 0 2.54
      vertex 0 0 0
      vertex 8.28 0 2.54
    endloop
  endfacet
  facet normal 0 -1 -0
    outer loop
      vertex 8.28 0 2.54
      vertex 0 0 0
      vertex 13.36 0 2.54
    endloop
  endfacet
  facet normal 0 -1 0
    outer loop
      vertex 0 0 0
      vertex 2.54 0 2.54
      vertex 0 0 7.54
    endloop
  endfacet
  facet normal 0 -1 0
    outer loop
      vertex 5.74 0 2.54
      vertex 8.28 0 7.54
      vertex 5.74 0 7.54
    endloop
  endfacet
  facet normal 0 -1 -0
    outer loop
      vertex 8.28 0 7.54
      vertex 5.74 0 2.54
      vertex 8.28 0 2.54
    endloop
  endfacet
  facet normal 0 -1 0
    outer loop
      vertex 13.36 0 14.54
      vertex 15.9 0 13.54
      vertex 15.9 0 14.54
    endloop
  endfacet
  facet normal 0 -1 0
    outer loop
      vertex 13.36 0 2.54
      vertex 16.2 0 13.54
      vertex 15.9 0 13.54
    endloop
  endfacet
  facet normal 0 -1 -0
    outer loop
      vertex 16.2 0 13.54
      vertex 13.36 0 2.54
      vertex 18.14 0 13.54
    endloop
  endfacet
  facet normal 0 -1 -0
    outer loop
      vertex 18.14 0 13.54
      vertex 13.36 0 2.54
      vertex 18.74 0 13.54
    endloop
  endfacet
  facet normal 0 -1 -0
    outer loop
      vertex 18.74 0 13.54
      vertex 13.36 0 2.54
      vertex 20.68 0 13.54
    endloop
  endfacet
  facet normal 0 -1 -0
    outer loop
      vertex 20.68 0 13.54
      vertex 13.36 0 2.54
      vertex 21.28 0 13.54
    endloop
  endfacet
  facet normal 0 -1 -0
    outer loop
      vertex 21.28 0 13.54
      vertex 13.36 0 2.54
      vertex 23.22 0 13.54
    endloop
  endfacet
  facet normal 0 -1 -0
    outer loop
      vertex 23.22 0 13.54
      vertex 13.36 0 2.54
      vertex 23.82 0 13.54
    endloop
  endfacet
  facet normal 0 -1 -0
    outer loop
      vertex 23.82 0 13.54
      vertex 13.36 0 2.54
      vertex 25.76 0 13.54
    endloop
  endfacet
  facet normal 0 -1 -0
    outer loop
      vertex 25.76 0 13.54
      vertex 13.36 0 2.54
      vertex 26.36 0 13.54
    endloop
  endfacet
  facet normal 0 -1 -0
    outer loop
      vertex 26.36 0 13.54
      vertex 13.36 0 2.54
      vertex 28.3 0 13.54
    endloop
  endfacet
  facet normal 0 -1 -0
    outer loop
      vertex 28.3 0 13.54
      vertex 13.36 0 2.54
      vertex 28.9 0 13.54
    endloop
  endfacet
  facet normal 0 -1 -0
    outer loop
      vertex 28.9 0 13.54
      vertex 13.36 0 2.54
      vertex 30.84 0 13.54
    endloop
  endfacet
  facet normal 0 -1 -0
    outer loop
      vertex 30.84 0 13.54
      vertex 13.36 0 2.54
      vertex 31.44 0 13.54
    endloop
  endfacet
  facet normal 0 -1 -0
    outer loop
      vertex 31.44 0 13.54
      vertex 13.36 0 2.54
      vertex 33.38 0 13.54
    endloop
  endfacet
  facet normal 0 -1 -0
    outer loop
      vertex 33.38 0 13.54
      vertex 13.36 0 2.54
      vertex 33.98 0 13.54
    endloop
  endfacet
  facet normal 0 -1 0
    outer loop
      vertex 56.54 0 0
      vertex 33.98 0 13.54
      vertex 13.36 0 2.54
    endloop
  endfacet
  facet normal 0 -1 0
    outer loop
      vertex 33.98 0 13.54
      vertex 56.54 0 0
      vertex 35.92 0 13.54
    endloop
  endfacet
  facet normal 0 -1 0
    outer loop
      vertex 35.92 0 13.54
      vertex 56.54 0 0
      vertex 36.52 0 13.54
    endloop
  endfacet
  facet normal 0 -1 0
    outer loop
      vertex 36.52 0 13.54
      vertex 56.54 0 0
      vertex 38.46 0 13.54
    endloop
  endfacet
  facet normal 0 -1 0
    outer loop
      vertex 38.46 0 13.54
      vertex 56.54 0 0
      vertex 39.06 0 13.54
    endloop
  endfacet
  facet normal 0 -1 0
    outer loop
      vertex 39.06 0 13.54
      vertex 56.54 0 0
      vertex 41 0 13.54
    endloop
  endfacet
  facet normal 0 -1 0
    outer loop
      vertex 41 0 13.54
      vertex 56.54 0 0
      vertex 41.6 0 13.54
    endloop
  endfacet
  facet normal 0 -1 0
    outer loop
      vertex 41.6 0 13.54
      vertex 56.54 0 0
      vertex 43.54 0 13.54
    endloop
  endfacet
  facet normal 0 -1 0
    outer loop
      vertex 43.54 0 13.54
      vertex 56.54 0 0
      vertex 44.14 0 13.54
    endloop
  endfacet
  facet normal 0 -1 0
    outer loop
      vertex 44.14 0 13.54
      vertex 56.54 0 0
      vertex 46.08 0 13.54
    endloop
  endfacet
  facet normal 0 -1 0
    outer loop
      vertex 46.08 0 13.54
      vertex 56.54 0 0
      vertex 46.68 0 13.54
    endloop
  endfacet
  facet normal 0 -1 0
    outer loop
      vertex 46.68 0 13.54
      vertex 56.54 0 0
      vertex 48.62 0 13.54
    endloop
  endfacet
  facet normal 0 -1 0
    outer loop
      vertex 48.62 0 13.54
      vertex 56.54 0 0
      vertex 49.22 0 13.54
    endloop
  endfacet
  facet normal 0 -1 0
    outer loop
      vertex 49.22 0 13.54
      vertex 56.54 0 0
      vertex 51.16 0 13.54
    endloop
  endfacet
  facet normal 0 -1 0
    outer loop
      vertex 51.16 0 13.54
      vertex 56.54 0 0
      vertex 51.76 0 13.54
    endloop
  endfacet
  facet normal 0 -1 0
    outer loop
      vertex 51.76 0 13.54
      vertex 56.54 0 0
      vertex 53.7 0 13.54
    endloop
  endfacet
  facet normal 0 -1 0
    outer loop
      vertex 13.36 0 2.54
      vertex 15.9 0 13.54
      vertex 13.36 0 14.54
    endloop
  endfacet
  facet normal 0 -1 0
    outer loop
      vertex 16.2 0 13.54
      vertex 18.14 0 14.54
      vertex 16.2 0 14.54
    endloop
  endfacet
  facet normal 0 -1 -0
    outer loop
      vertex 18.14 0 14.54
      vertex 16.2 0 13.54
      vertex 18.14 0 13.54
    endloop
  endfacet
  facet normal 0 -1 0
    outer loop
      vertex 18.74 0 13.54
      vertex 20.68 0 14.54
      vertex 18.74 0 14.54
    endloop
  endfacet
  facet normal 0 -1 -0
    outer loop
      vertex 20.68 0 14.54
      vertex 18.74 0 13.54
      vertex 20.68 0 13.54
    endloop
  endfacet
  facet normal 0 -1 0
    outer loop
      vertex 21.28 0 13.54
      vertex 23.22 0 14.54
      vertex 21.28 0 14.54
    endloop
  endfacet
  facet normal 0 -1 -0
    outer loop
      vertex 23.22 0 14.54
      vertex 21.28 0 13.54
      vertex 23.22 0 13.54
    endloop
  endfacet
  facet normal 0 -1 0
    outer loop
      vertex 23.82 0 13.54
      vertex 25.76 0 14.54
      vertex 23.82 0 14.54
    endloop
  endfacet
  facet normal 0 -1 -0
    outer loop
      vertex 25.76 0 14.54
      vertex 23.82 0 13.54
      vertex 25.76 0 13.54
    endloop
  endfacet
  facet normal 0 -1 0
    outer loop
      vertex 26.36 0 13.54
      vertex 28.3 0 14.54
      vertex 26.36 0 14.54
    endloop
  endfacet
  facet normal 0 -1 -0
    outer loop
      vertex 28.3 0 14.54
      vertex 26.36 0 13.54
      vertex 28.3 0 13.54
    endloop
  endfacet
  facet normal 0 -1 0
    outer loop
      vertex 28.9 0 13.54
      vertex 30.84 0 14.54
      vertex 28.9 0 14.54
    endloop
  endfacet
  facet normal 0 -1 -0
    outer loop
      vertex 30.84 0 14.54
      vertex 28.9 0 13.54
      vertex 30.84 0 13.54
    endloop
  endfacet
  facet normal 0 -1 0
    outer loop
      vertex 31.44 0 13.54
      vertex 33.38 0 14.54
      vertex 31.44 0 14.54
    endloop
  endfacet
  facet normal 0 -1 -0
    outer loop
      vertex 33.38 0 14.54
      vertex 31.44 0 13.54
      vertex 33.38 0 13.54
    endloop
  endfacet
  facet normal 0 -1 0
    outer loop
      vertex 33.98 0 13.54
      vertex 35.92 0 14.54
      vertex 33.98 0 14.54
    endloop
  endfacet
  facet normal 0 -1 -0
    outer loop
      vertex 35.92 0 14.54
      vertex 33.98 0 13.54
      vertex 35.92 0 13.54
    endloop
  endfacet
  facet normal 0 -1 0
    outer loop
      vertex 36.52 0 13.54
      vertex 38.46 0 14.54
      vertex 36.52 0 14.54
    endloop
  endfacet
  facet normal 0 -1 -0
    outer loop
      vertex 38.46 0 14.54
      vertex 36.52 0 13.54
      vertex 38.46 0 13.54
    endloop
  endfacet
  facet normal 0 -1 0
    outer loop
      vertex 39.06 0 13.54
      vertex 41 0 14.54
      vertex 39.06 0 14.54
    endloop
  endfacet
  facet normal 0 -1 -0
    outer loop
      vertex 41 0 14.54
      vertex 39.06 0 13.54
      vertex 41 0 13.54
    endloop
  endfacet
  facet normal 0 -1 0
    outer loop
      vertex 41.6 0 13.54
      vertex 43.54 0 14.54
      vertex 41.6 0 14.54
    endloop
  endfacet
  facet normal 0 -1 -0
    outer loop
      vertex 43.54 0 14.54
      vertex 41.6 0 13.54
      vertex 43.54 0 13.54
    endloop
  endfacet
  facet normal 0 -1 0
    outer loop
      vertex 44.14 0 13.54
      vertex 46.08 0 14.54
      vertex 44.14 0 14.54
    endloop
  endfacet
  facet normal 0 -1 -0
    outer loop
      vertex 46.08 0 14.54
      vertex 44.14 0 13.54
      vertex 46.08 0 13.54
    endloop
  endfacet
  facet normal 0 -1 0
    outer loop
      vertex 46.68 0 13.54
      vertex 48.62 0 14.54
      vertex 46.68 0 14.54
    endloop
  endfacet
  facet normal 0 -1 -0
    outer loop
      vertex 48.62 0 14.54
      vertex 46.68 0 13.54
      vertex 48.62 0 13.54
    endloop
  endfacet
  facet normal 0 -1 0
    outer loop
      vertex 49.22 0 13.54
      vertex 51.16 0 14.54
      vertex 49.22 0 14.54
    endloop
  endfacet
  facet normal 0 -1 -0
    outer loop
      vertex 51.16 0 14.54
      vertex 49.22 0 13.54
      vertex 51.16 0 13.54
    endloop
  endfacet
  facet normal 0 -1 0
    outer loop
      vertex 51.76 0 13.54
      vertex 53.7 0 14.54
      vertex 51.76 0 14.54
    endloop
  endfacet
  facet normal 0 -1 -0
    outer loop
      vertex 53.7 0 14.54
      vertex 51.76 0 13.54
      vertex 53.7 0 13.54
    endloop
  endfacet
  facet normal 0 -1 0
    outer loop
      vertex 54.3 0 13.54
      vertex 56.54 0 14.54
      vertex 54.3 0 14.54
    endloop
  endfacet
  facet normal 0 -1 0
    outer loop
      vertex 54.3 0 13.54
      vertex 56.54 0 0
      vertex 56.54 0 14.54
    endloop
  endfacet
  facet normal 0 -1 0
    outer loop
      vertex 53.7 0 13.54
      vertex 56.54 0 0
      vertex 54.3 0 13.54
    endloop
  endfacet
  facet normal 0 -1 0
    outer loop
      vertex 56.54 0 0
      vertex 13.36 0 2.54
      vertex 0 0 0
    endloop
  endfacet
  facet normal -1 0 0
    outer loop
      vertex 0 0 0
      vertex 0 22 7.54
      vertex 0 22 0
    endloop
  endfacet
  facet normal -1 -0 0
    outer loop
      vertex 0 22 7.54
      vertex 0 0 0
      vertex 0 0 7.54
    endloop
  endfacet
  facet normal -0 0 1
    outer loop
      vertex 2.54 22 2.54
      vertex 5.74 0 2.54
      vertex 5.74 22 2.54
    endloop
  endfacet
  facet normal 0 0 1
    outer loop
      vertex 5.74 0 2.54
      vertex 2.54 22 2.54
      vertex 2.54 0 2.54
    endloop
  endfacet
  facet normal -0 0 1
    outer loop
      vertex 8.28 22 2.54
      vertex 13.36 0 2.54
      vertex 13.36 22 2.54
    endloop
  endfacet
  facet normal 0 0 1
    outer loop
      vertex 13.36 0 2.54
      vertex 8.28 22 2.54
      vertex 8.28 0 2.54
    endloop
  endfacet
  facet normal 1 -0 0
    outer loop
      vertex 15.9 0 14.54
      vertex 15.9 3.99 13.54
      vertex 15.9 3.99 14.54
    endloop
  endfacet
  facet normal 1 0 0
    outer loop
      vertex 15.9 3.99 13.54
      vertex 15.9 0 14.54
      vertex 15.9 0 13.54
    endloop
  endfacet
  facet normal 1 -0 0
    outer loop
      vertex 15.9 11 14.54
      vertex 15.9 22 0
      vertex 15.9 22 14.54
    endloop
  endfacet
  facet normal 1 0 0
    outer loop
      vertex 15.9 22 0
      vertex 15.9 11 14.54
      vertex 15.9 11 0
    endloop
  endfacet
  facet normal 0 1 0
    outer loop
      vertex 15.9 22 14.54
      vertex 13.36 22 2.54
      vertex 13.36 22 14.54
    endloop
  endfacet
  facet normal 0 1 0
    outer loop
      vertex 15.9 22 0
      vertex 8.28 22 2.54
      vertex 13.36 22 2.54
    endloop
  endfacet
  facet normal 0 1 0
    outer loop
      vertex 0 22 0
      vertex 8.28 22 2.54
      vertex 15.9 22 0
    endloop
  endfacet
  facet normal 0 1 0
    outer loop
      vertex 8.28 22 2.54
      vertex 0 22 0
      vertex 5.74 22 2.54
    endloop
  endfacet
  facet normal 0 1 -0
    outer loop
      vertex 15.9 22 0
      vertex 13.36 22 2.54
      vertex 15.9 22 14.54
    endloop
  endfacet
  facet normal 0 1 -0
    outer loop
      vertex 8.28 22 2.54
      vertex 5.74 22 7.54
      vertex 8.28 22 7.54
    endloop
  endfacet
  facet normal 0 1 0
    outer loop
      vertex 5.74 22 7.54
      vertex 8.28 22 2.54
      vertex 5.74 22 2.54
    endloop
  endfacet
  facet normal 0 1 -0
    outer loop
      vertex 2.54 22 2.54
      vertex 0 22 7.54
      vertex 2.54 22 7.54
    endloop
  endfacet
  facet normal 0 1 0
    outer loop
      vertex 2.54 22 2.54
      vertex 0 22 0
      vertex 0 22 7.54
    endloop
  endfacet
  facet normal 0 1 0
    outer loop
      vertex 5.74 22 2.54
      vertex 0 22 0
      vertex 2.54 22 2.54
    endloop
  endfacet
  facet normal -0 0 1
    outer loop
      vertex 0 22 7.54
      vertex 2.54 0 7.54
      vertex 2.54 22 7.54
    endloop
  endfacet
  facet normal 0 0 1
    outer loop
      vertex 2.54 0 7.54
      vertex 0 22 7.54
      vertex 0 0 7.54
    endloop
  endfacet
  facet normal 1 -0 0
    outer loop
      vertex 2.54 0 7.54
      vertex 2.54 22 2.54
      vertex 2.54 22 7.54
    endloop
  endfacet
  facet normal 1 0 0
    outer loop
      vertex 2.54 22 2.54
      vertex 2.54 0 7.54
      vertex 2.54 0 2.54
    endloop
  endfacet
  facet normal -1 0 0
    outer loop
      vertex 5.74 0 2.54
      vertex 5.74 22 7.54
      vertex 5.74 22 2.54
    endloop
  endfacet
  facet normal -1 -0 0
    outer loop
      vertex 5.74 22 7.54
      vertex 5.74 0 2.54
      vertex 5.74 0 7.54
    endloop
  endfacet
  facet normal -0 0 1
    outer loop
      vertex 5.74 22 7.54
      vertex 8.28 0 7.54
      vertex 8.28 22 7.54
    endloop
  endfacet
  facet normal 0 0 1
    outer loop
      vertex 8.28 0 7.54
      vertex 5.74 22 7.54
      vertex 5.74 0 7.54
    endloop
  endfacet
  facet normal 1 -0 0
    outer loop
      vertex 8.28 0 7.54
      vertex 8.28 22 2.54
      vertex 8.28 22 7.54
    endloop
  endfacet
  facet normal 1 0 0
    outer loop
      vertex 8.28 22 2.54
      vertex 8.28 0 7.54
      vertex 8.28 0 2.54
    endloop
  endfacet
  facet normal -1 0 0
    outer loop
      vertex 13.36 0 2.54
      vertex 13.36 22 14.54
      vertex 13.36 22 2.54
    endloop
  endfacet
  facet normal -1 -0 0
    outer loop
      vertex 13.36 22 14.54
      vertex 13.36 0 2.54
      vertex 13.36 0 14.54
    endloop
  endfacet
endsolid OpenSCAD_Model
